# Blender v3.0.1 OBJ File: ''
# www.blender.org
o Icosphere
v 0.000000 -2.140938 -1.670499
v 0.723607 -0.447220 0.525725
v -0.276388 -0.447220 0.850649
v -0.894426 -0.447216 0.012377
v -0.276388 -0.447220 -0.627294
v 0.723607 -0.447220 -0.525725
v 0.276388 0.447220 0.850649
v -0.723607 0.447220 0.525725
v -0.723607 0.447220 -1.681991
v 0.276388 0.447220 -0.850649
v 0.894426 0.447216 0.000000
v 0.000000 1.000000 0.000000
v -0.162456 -0.850654 -0.071558
v 0.425323 -0.850654 -0.405466
v 0.262869 -0.525738 0.805684
v 0.850648 -0.525736 -0.003327
v 0.425323 -0.992070 -1.061045
v -0.525730 -0.850652 -0.276388
v -0.688189 -0.525736 0.496670
v -0.162456 -1.425965 -1.423603
v -0.688189 -0.525736 -0.233647
v 0.262869 -0.525738 -0.788510
v 0.951058 0.000000 0.309013
v 0.951058 0.000000 -0.309013
v 0.000000 0.000000 1.000000
v 0.587786 0.000000 0.809017
v -0.951058 0.000000 0.306695
v -0.587786 0.000000 0.809017
v -0.587786 0.000000 -1.306662
v -0.951058 0.000000 -0.804140
v 0.587786 0.000000 -0.809017
v 0.000000 0.000000 -1.002316
v 0.688189 0.525736 0.499997
v -0.850648 0.525736 -0.497670
v -0.262869 0.525738 -1.306674
v -1.010763 0.902111 2.282582
v 0.162456 0.850654 0.499995
v 0.525730 0.850652 0.000000
v -0.425323 0.850654 0.306693
v -0.425323 0.850654 -0.806671
v 0.162456 0.850654 -0.502313
v 1.916271 0.727511 -1.374575
v 1.859639 1.180560 -1.013008
v 1.621210 0.962502 -2.805626
v 1.127669 1.551416 -1.448189
v 1.160532 0.999730 -2.414673
v 1.512945 0.614726 -2.321008
v 1.490943 1.588015 -0.933332
v -1.146585 1.335964 2.049591
v -0.685846 1.714857 2.607909
v -0.260522 1.700985 1.973565
v -0.146589 1.402323 2.374514
v -0.848300 1.682700 1.782581
v -0.422978 0.949741 2.473562
vt 0.347160 0.381179
vt 0.371629 0.379663
vt 0.355039 0.407718
vt 0.630045 0.467624
vt 0.460026 0.335367
vt 0.336322 0.402158
vt 0.347213 0.381316
vt 0.349131 0.376525
vt 0.630045 0.154005
vt 0.354337 0.466003
vt 0.416509 0.477592
vt 0.347345 0.518239
vt 0.318380 0.418620
vt 0.331940 0.439000
vt 0.302686 0.436950
vt 0.321550 0.383174
vt 0.322675 0.405778
vt 0.292594 0.379829
vt 0.380657 0.331462
vt 0.335300 0.359411
vt 0.317678 0.315523
vt 0.598184 0.819335
vt 0.426345 0.596591
vt 0.314089 0.470857
vt 0.294294 0.394912
vt 0.302589 0.358308
vt 0.386250 0.231058
vt 0.312087 0.587574
vt 0.305852 0.727306
vt 0.198791 0.585955
vt 0.280675 0.458384
vt 0.287820 0.498566
vt 0.287892 0.498213
vt 0.284415 0.381252
vt 0.274116 0.405180
vt 0.258496 0.382110
vt 0.274984 0.333153
vt 0.280064 0.371360
vt 0.203180 0.323710
vt 0.273714 0.274071
vt 0.273798 0.272679
vt 0.068103 0.089464
vt 0.000079 0.430047
vt 0.272350 0.271448
vt 0.345917 0.000079
vt 0.269841 0.272858
vt 0.269882 0.278291
vt 0.223522 0.468622
vt 0.287680 0.498548
vt 0.287612 0.498160
vt 0.287619 0.498480
vt 0.001539 0.791895
vt 0.292714 0.999921
vt 0.273075 0.276756
vt 0.287613 0.497507
vt 0.273593 0.272931
vt 0.287733 0.498717
vn 0.3466 -0.7125 0.6101
vn 0.4404 -0.8666 0.2344
vn -0.3237 -0.7521 0.5741
vn -0.9621 -0.1371 -0.2359
vn 0.2751 0.3691 -0.8877
vn 0.9051 -0.3312 0.2665
vn 0.0301 -0.3333 0.9424
vn -0.8876 -0.3263 0.3251
vn -0.2613 -0.8569 -0.4443
vn 0.5087 -0.3451 -0.7887
vn 0.8026 -0.1256 0.5831
vn -0.3066 -0.1256 0.9435
vn -0.9921 -0.1256 0.0000
vn 0.3205 -0.7171 -0.6189
vn 0.8026 -0.1256 -0.5831
vn 0.4089 0.6617 0.6284
vn -0.9414 -0.3303 -0.0683
vn -0.6562 0.7450 -0.1198
vn 0.5537 0.6283 -0.5466
vn -0.5968 -0.5681 -0.5666
vn 0.2681 0.9437 -0.1939
vn 0.4231 -0.8928 -0.1546
vn 0.4991 0.3772 0.7801
vn 0.1268 0.9613 -0.2448
vn 0.2441 0.8475 -0.4714
vn 0.2406 0.8477 -0.4727
vn -0.3313 0.9435 0.0000
vn -0.6071 0.7947 0.0000
vn -0.7572 0.6374 0.1429
vn -0.1037 0.9433 0.3155
vn -0.1281 -0.8559 0.5010
vn 0.9333 0.3556 0.0492
vn 0.2680 0.9435 0.1947
vn 0.4911 0.7947 0.3568
vn 0.7240 0.6617 0.1947
vn -0.4039 0.8780 0.2569
vn -0.8185 0.4175 -0.3946
vn 0.7946 -0.2952 0.5305
vn 0.6293 -0.1290 -0.7664
vn 0.4423 -0.2734 -0.8542
vn 0.6216 -0.3842 -0.6827
vn -0.9600 0.2532 -0.1198
vn -0.9822 0.1876 0.0000
vn -0.9087 0.3922 0.1429
vn 0.1370 0.8768 -0.4609
vn -0.8195 0.3660 -0.4410
vn 0.8069 -0.3683 0.4618
vn 0.5746 0.3304 0.7488
vn 0.7947 0.1876 0.5773
vn 0.8897 0.3304 0.3151
vn 0.3098 0.1280 -0.9421
vn 0.3044 -0.2243 -0.9258
vn -0.3145 -0.4883 -0.8141
vn -0.6521 -0.5937 -0.4714
vn -0.5614 -0.7211 -0.4059
vn -0.6523 -0.6829 -0.3288
vn -0.8040 0.1241 0.5815
vn -0.7956 -0.1899 0.5753
vn -0.5775 -0.3327 0.7456
vn 0.3066 0.1256 0.9435
vn 0.3032 -0.1933 0.9331
vn 0.5305 -0.3328 0.7797
vn 0.9921 0.1256 0.0000
vn 0.9822 -0.1876 0.0000
vn 0.9048 -0.3296 -0.2696
vn 0.3365 0.5598 -0.7572
vn 0.1235 0.5324 -0.8374
vn -0.1425 0.6146 -0.7758
vn -0.6673 0.4218 -0.6139
vn -0.8959 -0.4397 -0.0632
vn -0.7744 -0.3150 -0.5486
vn -0.6660 -0.7273 0.1657
vn -0.1946 -0.9182 0.3450
vn -0.1529 -0.9122 0.3802
vn 0.9314 -0.2504 -0.2641
vn 0.4802 -0.8575 0.1850
vn 0.9194 -0.3844 0.0829
vn -0.1010 -0.9160 0.3882
vn 0.1565 -0.9485 0.2754
vn 0.3270 -0.9008 0.2855
vn 0.7122 0.6792 -0.1773
vn 0.3083 0.9085 -0.2821
vn -0.3377 0.8125 -0.4753
vn 0.9567 0.2449 -0.1570
vn 0.7639 -0.5929 -0.2549
vn -0.5332 -0.6264 -0.5686
vn -0.7088 0.6963 0.1124
vn -0.0197 0.9992 -0.0351
vn 0.5809 0.7232 0.3736
vn -0.7937 0.0757 0.6036
vn -0.2795 -0.2584 0.9247
vn 0.3818 -0.0310 0.9237
s off
f 1/1/1 14/2/1 13/3/1
f 2/4/2 14/2/2 16/5/2
f 1/1/3 13/3/3 18/6/3
f 1/1/4 18/6/4 20/7/4
f 1/1/5 20/7/5 17/8/5
f 2/4/6 16/5/6 23/9/6
f 3/10/7 15/11/7 25/12/7
f 4/13/8 19/14/8 27/15/8
f 5/16/9 21/17/9 29/18/9
f 6/19/10 22/20/10 31/21/10
f 2/4/11 23/22/11 26/23/11
f 3/10/12 25/12/12 28/24/12
f 4/13/13 27/15/13 30/25/13
f 5/16/14 29/18/14 32/26/14
f 6/19/15 31/21/15 24/27/15
f 7/28/16 33/29/16 37/30/16
f 8/31/17 28/24/17 36/32/17 49/33/17
f 9/34/18 34/35/18 40/36/18
f 10/37/19 35/38/19 41/39/19
f 31/21/20 10/37/20 46/40/20 47/41/20
f 38/42/21 41/39/21 12/43/21
f 24/27/22 31/21/22 47/41/22 42/44/22
f 38/42/23 11/45/23 43/46/23 48/47/23
f 41/39/24 40/36/24 12/43/24
f 41/39/25 35/38/25 40/36/25
f 35/38/26 9/34/26 40/36/26
f 40/36/27 39/48/27 12/43/27
f 40/36/28 34/35/28 39/48/28
f 34/35/29 8/31/29 39/48/29
f 39/48/30 37/30/30 12/43/30
f 28/24/31 25/12/31 54/49/31 36/32/31
f 7/28/32 37/30/32 51/50/32 52/51/32
f 37/30/33 38/52/33 12/43/33
f 37/30/34 33/29/34 38/52/34
f 33/29/35 11/53/35 38/52/35
f 41/39/36 38/42/36 48/47/36 45/54/36
f 10/37/37 41/39/37 45/54/37 46/40/37
f 11/45/38 24/27/38 42/44/38 43/46/38
f 32/26/39 35/38/39 10/37/39
f 32/26/40 29/18/40 35/38/40
f 29/18/41 9/34/41 35/38/41
f 30/25/42 34/35/42 9/34/42
f 30/25/43 27/15/43 34/35/43
f 27/15/44 8/31/44 34/35/44
f 37/30/45 39/48/45 53/55/45 51/50/45
f 39/48/46 8/31/46 49/33/46 53/55/46
f 25/12/47 7/28/47 52/51/47 54/49/47
f 26/23/48 33/29/48 7/28/48
f 26/23/49 23/22/49 33/29/49
f 23/22/50 11/53/50 33/29/50
f 31/21/51 32/26/51 10/37/51
f 31/21/52 22/20/52 32/26/52
f 22/20/53 5/16/53 32/26/53
f 29/18/54 30/25/54 9/34/54
f 29/18/55 21/17/55 30/25/55
f 21/17/56 4/13/56 30/25/56
f 27/15/57 28/24/57 8/31/57
f 27/15/58 19/14/58 28/24/58
f 19/14/59 3/10/59 28/24/59
f 25/12/60 26/23/60 7/28/60
f 25/12/61 15/11/61 26/23/61
f 15/11/62 2/4/62 26/23/62
f 23/9/63 24/27/63 11/45/63
f 23/9/64 16/5/64 24/27/64
f 16/5/65 6/19/65 24/27/65
f 17/8/66 22/20/66 6/19/66
f 17/8/67 20/7/67 22/20/67
f 20/7/68 5/16/68 22/20/68
f 20/7/69 21/17/69 5/16/69
f 20/7/70 18/6/70 21/17/70
f 18/6/71 4/13/71 21/17/71
f 18/6/72 19/14/72 4/13/72
f 18/6/73 13/3/73 19/14/73
f 13/3/74 3/10/74 19/14/74
f 16/5/75 17/8/75 6/19/75
f 16/5/76 14/2/76 17/8/76
f 14/2/77 1/1/77 17/8/77
f 13/3/78 15/11/78 3/10/78
f 13/3/79 14/2/79 15/11/79
f 14/2/80 2/4/80 15/11/80
f 43/46/81 44/56/81 48/47/81
f 48/47/82 44/56/82 45/54/82
f 44/56/83 46/40/83 45/54/83
f 42/44/84 44/56/84 43/46/84
f 42/44/85 47/41/85 44/56/85
f 47/41/86 46/40/86 44/56/86
f 49/33/87 50/57/87 53/55/87
f 53/55/88 50/57/88 51/50/88
f 50/57/89 52/51/89 51/50/89
f 36/32/90 50/57/90 49/33/90
f 36/32/91 54/49/91 50/57/91
f 54/49/92 52/51/92 50/57/92
